<?xml version="1.0" encoding="utf-8"?><svg viewBox="0 0 50 44" xmlns="http://www.w3.org/2000/svg" xmlns:xlink="http://www.w3.org/1999/xlink"><style>:root>svg{display:none}:root>svg:target{display:block}</style><svg fill="none" viewBox="0 0 43 43" id="facebook" xmlns="http://www.w3.org/2000/svg"><path d="M43 21.633A21.567 21.567 0 0021.5 0 21.567 21.567 0 000 21.633 21.6 21.6 0 0018.141 43V27.886h-5.459v-6.253h5.46v-4.766c0-5.422 3.21-8.416 8.12-8.416 1.613.022 3.221.163 4.813.422V14.2h-2.71c-2.672 0-3.5 1.668-3.5 3.378v4.058h5.962l-.953 6.253h-5.01V43A21.6 21.6 0 0043 21.633z" fill="#fff"/></svg><svg fill="none" viewBox="0 0 42 44" id="instagram" xmlns="http://www.w3.org/2000/svg"><path d="M21.063 3.929c5.59 0 6.252.023 8.46.127 1.33.017 2.647.27 3.888.75.916.354 1.74.912 2.408 1.631.7.71 1.235 1.567 1.566 2.508.462 1.3.706 2.669.721 4.049.1 2.3.122 2.989.122 8.812 0 5.823-.022 6.512-.122 8.812a12.508 12.508 0 01-.72 4.049 6.802 6.802 0 01-1.567 2.508 6.455 6.455 0 01-2.408 1.631c-1.241.48-2.558.733-3.888.75-2.207.1-2.87.127-8.46.127-5.59 0-6.253-.022-8.46-.127a11.186 11.186 0 01-3.888-.75 6.475 6.475 0 01-2.408-1.631 6.776 6.776 0 01-1.566-2.508 12.509 12.509 0 01-.72-4.049c-.1-2.3-.123-2.989-.123-8.812 0-5.823.022-6.512.122-8.812.015-1.38.259-2.748.721-4.049a6.8 6.8 0 011.567-2.508 6.455 6.455 0 012.407-1.63 11.187 11.187 0 013.888-.75c2.208-.1 2.87-.127 8.46-.127v-.001zm0-3.928c-5.686 0-6.4.025-8.632.132-1.74.036-3.46.379-5.082 1.012a10.221 10.221 0 00-3.708 2.516 10.737 10.737 0 00-2.414 3.861c-.61 1.7-.939 3.487-.973 5.293-.103 2.326-.127 3.069-.127 8.991s.024 6.665.126 8.994c.035 1.805.364 3.591.974 5.29a10.735 10.735 0 002.415 3.862 10.228 10.228 0 003.708 2.515 14.82 14.82 0 005.077 1.014c2.233.106 2.946.132 8.632.132s6.4-.025 8.632-.132c1.74-.037 3.46-.38 5.082-1.014a10.22 10.22 0 003.708-2.515 10.742 10.742 0 002.415-3.862c.61-1.7.94-3.487.973-5.293.1-2.326.126-3.069.126-8.991s-.024-6.665-.126-8.991a16.574 16.574 0 00-.973-5.293 10.735 10.735 0 00-2.41-3.862 10.228 10.228 0 00-3.708-2.515A14.857 14.857 0 0029.695.132C27.462.025 26.75 0 21.063 0v.001z" fill="#fff"/><path d="M21.063 10.185c-5.938 0-10.751 5.2-10.751 11.621s4.813 11.621 10.751 11.621 10.75-5.2 10.75-11.62c0-6.422-4.813-11.622-10.75-11.622zm0 19.164a7.566 7.566 0 116.978-7.543 7.277 7.277 0 01-6.978 7.543zM32.238 12.614a2.512 2.512 0 100-5.024 2.512 2.512 0 000 5.024z" fill="#fff"/></svg><svg fill="none" viewBox="0 0 46 37" id="twitter" xmlns="http://www.w3.org/2000/svg"><path d="M14.458 36.582c16.985 0 26.275-14.072 26.275-26.275 0-.4-.009-.798-.027-1.194a18.801 18.801 0 004.607-4.782 18.44 18.44 0 01-5.3 1.453A9.265 9.265 0 0044.07.676a18.485 18.485 0 01-5.866 2.242 9.242 9.242 0 00-15.736 8.422 26.213 26.213 0 01-19.03-9.648A9.24 9.24 0 006.292 14.02a9.16 9.16 0 01-4.182-1.156v.117a9.237 9.237 0 007.41 9.052 9.187 9.187 0 01-4.17.157 9.241 9.241 0 008.624 6.412 18.528 18.528 0 01-11.472 3.955c-.735 0-1.47-.043-2.2-.128a26.1 26.1 0 0014.155 4.154z" fill="#fff"/></svg><svg fill="none" viewBox="0 0 50 35" id="youtube" xmlns="http://www.w3.org/2000/svg"><path d="M48.336 5.336a6.094 6.094 0 00-4.285-4.316C40.266 0 25.101 0 25.101 0S9.933 0 6.15 1.02a6.094 6.094 0 00-4.288 4.316C.851 9.142.851 17.085.851 17.085s0 7.942 1.014 11.749a6.094 6.094 0 004.286 4.315c3.782 1.02 18.948 1.02 18.948 1.02s15.166 0 18.948-1.02a6.093 6.093 0 004.288-4.316c1.016-3.806 1.016-11.748 1.016-11.748s0-7.943-1.015-11.749zM20.14 24.3V9.874l12.676 7.211L20.14 24.3z" fill="#fff"/></svg></svg>